<?xml version="1.0" encoding="utf-8"?>
<svg width="344.21484px" height="83px" viewBox="0 0 344.21484 83" version="1.1" xmlns:xlink="http://www.w3.org/1999/xlink" xmlns="http://www.w3.org/2000/svg">
  <defs>
    <path d="M344.215 0L344.215 0L344.215 83L0 83L0 0L344.215 0Z" id="path_1" />
    <clipPath id="clip_1">
      <use xlink:href="#path_1" clip-rule="evenodd" fill-rule="evenodd" />
    </clipPath>
  </defs>
  <g id="Frame" clip-path="url(#clip_1)">
    <path d="M344.215 0L344.215 0L344.215 83L0 83L0 0L344.215 0Z" id="Frame" fill="none" stroke="none" />
    <path d="M5.27344 65.1797L5.27344 13.6406L24.6094 13.6406C28.5469 13.6406 31.7051 14.1621 34.084 15.2051C36.4629 16.248 38.3261 17.8535 39.6738 20.0215C41.0215 22.1894 41.6953 24.457 41.6953 26.8242C41.6953 29.0273 41.0976 31.1016 39.9023 33.0469C38.707 34.9922 36.9024 36.5625 34.4883 37.7578C37.6055 38.6719 40.002 40.2305 41.6777 42.4336C43.3535 44.6367 44.1914 47.2383 44.1914 50.2383C44.1914 52.6524 43.6816 54.8965 42.6621 56.9707C41.6426 59.0449 40.3828 60.6445 38.8828 61.7695C37.3828 62.8945 35.5019 63.7441 33.2402 64.3184C30.9785 64.8926 28.207 65.1797 24.9258 65.1797L5.27344 65.1797L5.27344 65.1797ZM12.0938 35.2969L23.2383 35.2969C26.2617 35.2969 28.4297 35.0977 29.7422 34.6992C31.4766 34.1836 32.7832 33.3281 33.6621 32.1328C34.541 30.9375 34.9805 29.4375 34.9805 27.6328C34.9805 25.9219 34.5703 24.416 33.75 23.1152C32.9297 21.8145 31.7578 20.9239 30.2344 20.4434C28.7109 19.9629 26.0976 19.7227 22.3945 19.7227L12.0938 19.7227L12.0938 35.2969L12.0938 35.2969ZM12.0938 59.0977L24.9258 59.0977C27.1289 59.0977 28.6758 59.0157 29.5664 58.8516C31.1367 58.5703 32.4492 58.1016 33.5039 57.4453C34.5586 56.789 35.4258 55.834 36.1055 54.5801C36.7852 53.3262 37.125 51.8789 37.125 50.2383C37.125 48.3164 36.6328 46.6465 35.6484 45.2285C34.6641 43.8106 33.2988 42.8145 31.5527 42.2402C29.8066 41.666 27.293 41.3789 24.0117 41.3789L12.0938 41.3789L12.0938 59.0977L12.0938 59.0977ZM77.2383 65.1797L77.2383 59.6953C74.332 63.914 70.3828 66.0234 65.3906 66.0234C63.1875 66.0234 61.1308 65.6015 59.2207 64.7578C57.3106 63.9141 55.8926 62.8535 54.9668 61.5762C54.041 60.2989 53.3906 58.7344 53.0156 56.8828C52.7578 55.6406 52.6289 53.6719 52.6289 50.9766L52.6289 27.8438L58.957 27.8438L58.957 48.5508C58.957 51.8555 59.0859 54.082 59.3438 55.2305C59.7422 56.8946 60.5859 58.2012 61.875 59.1504C63.1641 60.0996 64.7578 60.5742 66.6563 60.5742C68.5547 60.5742 70.3359 60.0879 72 59.1152C73.6641 58.1426 74.8418 56.8184 75.5332 55.1426C76.2246 53.4668 76.5703 51.0352 76.5703 47.8477L76.5703 27.8438L82.8984 27.8438L82.8984 65.1797L77.2383 65.1797L77.2383 65.1797ZM92.8477 20.918L92.8477 13.6406L99.1758 13.6406L99.1758 20.918L92.8477 20.918L92.8477 20.918ZM92.8477 65.1797L92.8477 27.8438L99.1758 27.8438L99.1758 65.1797L92.8477 65.1797L92.8477 65.1797ZM108.668 65.1797L108.668 13.6406L114.996 13.6406L114.996 65.1797L108.668 65.1797L108.668 65.1797ZM149.027 65.1797L149.027 60.4688C146.66 64.1719 143.18 66.0234 138.586 66.0234C135.609 66.0234 132.873 65.2031 130.377 63.5625C127.881 61.9219 125.947 59.6309 124.576 56.6895C123.205 53.748 122.52 50.3672 122.52 46.5469C122.52 42.8203 123.141 39.4394 124.383 36.4043C125.625 33.3692 127.488 31.043 129.973 29.4258C132.457 27.8086 135.234 27 138.305 27C140.555 27 142.559 27.4746 144.316 28.4238C146.074 29.3731 147.504 30.6094 148.605 32.1328L148.605 13.6406L154.898 13.6406L154.898 65.1797L149.027 65.1797L149.027 65.1797ZM129.023 46.5469C129.023 51.3282 130.031 54.9024 132.047 57.2695C134.062 59.6367 136.441 60.8203 139.184 60.8203C141.949 60.8203 144.299 59.6894 146.232 57.4277C148.166 55.166 149.133 51.7149 149.133 47.0742C149.133 41.9649 148.149 38.2149 146.18 35.8242C144.211 33.4336 141.785 32.2383 138.902 32.2383C136.09 32.2383 133.741 33.3867 131.854 35.6836C129.967 37.9805 129.023 41.6016 129.023 46.5469L129.023 46.5469ZM165.656 65.1797L165.656 13.6406L185.098 13.6406C188.519 13.6406 191.133 13.8047 192.938 14.1328C195.469 14.5547 197.59 15.3574 199.301 16.541C201.012 17.7246 202.389 19.3828 203.432 21.5156C204.475 23.6484 204.996 25.9922 204.996 28.5469C204.996 32.9297 203.602 36.6387 200.813 39.6738C198.024 42.709 192.984 44.2266 185.695 44.2266L172.477 44.2266L172.477 65.1797L165.656 65.1797L165.656 65.1797ZM172.477 38.1445L185.801 38.1445C190.207 38.1445 193.336 37.3242 195.188 35.6836C197.039 34.043 197.965 31.7344 197.965 28.7578C197.965 26.6015 197.42 24.7558 196.33 23.2207C195.24 21.6856 193.804 20.6719 192.023 20.1797C190.875 19.875 188.754 19.7227 185.66 19.7227L172.477 19.7227L172.477 38.1445L172.477 38.1445ZM237.234 60.5742C234.891 62.5664 232.635 63.9727 230.467 64.793C228.299 65.6133 225.973 66.0234 223.488 66.0234C219.387 66.0234 216.234 65.0215 214.031 63.0176C211.828 61.0137 210.727 58.4531 210.727 55.3359C210.727 53.5078 211.143 51.8379 211.975 50.3262C212.807 48.8145 213.897 47.6016 215.244 46.6875C216.592 45.7734 218.11 45.082 219.797 44.6133C221.039 44.2852 222.914 43.9688 225.422 43.6641C230.531 43.0547 234.293 42.3281 236.707 41.4844C236.73 40.6172 236.742 40.0664 236.742 39.832C236.742 37.2539 236.144 35.4375 234.949 34.3828C233.332 32.9531 230.929 32.2383 227.742 32.2383C224.765 32.2383 222.568 32.7598 221.15 33.8027C219.732 34.8457 218.683 36.6914 218.004 39.3398L211.816 38.4961C212.379 35.8476 213.305 33.709 214.594 32.0801C215.883 30.4512 217.746 29.1973 220.184 28.3184C222.621 27.4395 225.445 27 228.656 27C231.844 27 234.434 27.375 236.426 28.125C238.418 28.875 239.883 29.8184 240.82 30.9551C241.758 32.0918 242.414 33.5274 242.789 35.2617C243 36.3398 243.105 38.2852 243.105 41.0977L243.105 49.5352C243.105 55.418 243.24 59.1387 243.51 60.6973C243.779 62.2559 244.312 63.75 245.109 65.1797L238.5 65.1797C237.844 63.8672 237.422 62.332 237.234 60.5742L237.234 60.5742ZM236.707 46.4414C234.41 47.3789 230.965 48.1758 226.371 48.832C223.77 49.207 221.93 49.6289 220.852 50.0977C219.773 50.5664 218.941 51.252 218.355 52.1543C217.77 53.0566 217.477 54.0586 217.477 55.1602C217.477 56.8477 218.116 58.2539 219.393 59.3789C220.67 60.5039 222.539 61.0664 225 61.0664C227.437 61.0664 229.605 60.5332 231.504 59.4668C233.403 58.4004 234.797 56.9414 235.688 55.0898C236.367 53.6601 236.707 51.5508 236.707 48.7617L236.707 46.4414L236.707 46.4414ZM266.73 59.5195L267.645 65.1094C265.864 65.4844 264.27 65.6719 262.863 65.6719C260.566 65.6719 258.785 65.3086 257.52 64.582C256.254 63.8555 255.363 62.9004 254.848 61.7168C254.332 60.5332 254.074 58.043 254.074 54.2461L254.074 32.7656L249.434 32.7656L249.434 27.8438L254.074 27.8438L254.074 18.5977L260.367 14.8008L260.367 27.8438L266.73 27.8438L266.73 32.7656L260.367 32.7656L260.367 54.5977C260.367 56.4024 260.478 57.5625 260.701 58.0781C260.924 58.5938 261.287 59.0039 261.791 59.3086C262.295 59.6133 263.016 59.7656 263.953 59.7656C264.656 59.7656 265.582 59.6836 266.73 59.5195L266.73 59.5195ZM297.281 51.5039L303.504 52.3125C302.824 56.6016 301.084 59.959 298.283 62.3848C295.482 64.8105 292.043 66.0234 287.965 66.0234C282.856 66.0234 278.748 64.3535 275.643 61.0137C272.537 57.6738 270.984 52.8867 270.984 46.6523C270.984 42.6211 271.652 39.0938 272.988 36.0703C274.324 33.0469 276.357 30.7793 279.088 29.2676C281.819 27.7559 284.789 27 288 27C292.055 27 295.371 28.0254 297.949 30.0762C300.527 32.1269 302.179 35.039 302.906 38.8125L296.754 39.7617C296.168 37.2539 295.131 35.3672 293.643 34.1016C292.154 32.8359 290.355 32.2031 288.246 32.2031C285.059 32.2031 282.469 33.3457 280.477 35.6309C278.484 37.916 277.488 41.5313 277.488 46.4766C277.488 51.4922 278.449 55.1367 280.371 57.4102C282.293 59.6836 284.801 60.8203 287.895 60.8203C290.379 60.8203 292.453 60.0586 294.117 58.5352C295.781 57.0117 296.836 54.668 297.281 51.5039L297.281 51.5039ZM308.918 65.1797L308.918 13.6406L315.246 13.6406L315.246 32.1328C318.199 28.7109 321.926 27 326.426 27C329.191 27 331.594 27.5449 333.633 28.6348C335.672 29.7246 337.131 31.2304 338.01 33.1523C338.889 35.0742 339.328 37.8633 339.328 41.5195L339.328 65.1797L333 65.1797L333 41.5195C333 38.3554 332.314 36.0527 330.943 34.6113C329.572 33.1699 327.633 32.4492 325.125 32.4492C323.25 32.4492 321.487 32.9355 319.834 33.9082C318.181 34.8809 317.004 36.1992 316.301 37.8633C315.598 39.5274 315.246 41.8242 315.246 44.7539L315.246 65.1797L308.918 65.1797L308.918 65.1797Z" id="BuildPatch" fill="#FFFFFF" fill-rule="evenodd" stroke="none" />
  </g>
</svg>